<svg width="512" height="512" viewBox="0 0 512 512" fill="none" xmlns="http://www.w3.org/2000/svg">
<path d="M181.983 177.909L164.668 178.286C155.946 178.476 145.214 180.634 132.472 184.761C119.98 188.625 107.791 194.666 95.9068 202.88L91.6421 183.725L32 185.021L36.4324 388.959L103.771 387.495L100.633 243.199C117.709 237.695 133.045 234.796 146.641 234.5L160.109 234.206C163.957 234.122 167.191 235.336 169.812 237.845C172.434 240.355 173.786 243.533 173.87 247.381L176.882 385.905L244.219 384.442L241.638 265.73L230.54 263.479L200.875 235.858L187.037 177.996C185.377 177.929 183.709 177.872 181.983 177.909Z" fill="#308569"/>
<path d="M341.342 309.184L403.029 153.904L480 123.041L379.331 388.959H303.354L242.155 287.5H316.233L341.342 309.184Z" fill="#174E3C"/>
<path d="M251.64 211.962C251.64 211.962 268.236 226.775 279.222 242.717C285.957 252.49 293.34 276.232 293.34 276.232C357.843 172.244 243.199 144.964 195.056 133.826C185.606 164.846 187.449 196.403 198.71 226.654C206.414 247.325 216.469 261.56 238.181 266.855C245.308 268.549 260.109 268.317 260.109 268.317" stroke="#174E3C" stroke-width="17.4095" stroke-linecap="round" stroke-linejoin="round"/>
</svg>
